# xmcd CD database file
#
# Track frame offsets:
#	183
#	13988
#	27836
#	39970
#	52934
#	67010
#	82314
#	96172
#	108812
#	121809
#	135338
#	150025
#	164163
#	177681
#	189536
#	203106
#	217249
#	232552
#	249388
#	262233
#	276377
#	290335
#	303636
#	317536
#
# Disc length: 4393 seconds
#
# Revision: 0
# Processed by: cddbd v1.5.1PL0 Copyright (c) Steve Scherf et al.
# Submitted via: CDex 1.51
#
DISCID=58112718
DTITLE=Tempa Red - 1928-1946
DYEAR=2004
DGENRE=Blues
TTITLE0=The Alley Crap Game
TTITLE1=It's Tight Like That
TTITLE2=Gold Tooth Papa
TTITLE3=Death Bell Blues
TTITLE4=You Can't Come In
TTITLE5=Train Time Blues
TTITLE6=How Long, How Long Blues
TTITLE7=It's Tight Like That
TTITLE8=Come And Go To That Land
TTITLE9=Hold To His Hand
TTITLE10=Whiskey Drinkin' Blues
TTITLE11=Doggin' Me Around Blues
TTITLE12=Black Hearted Blues
TTITLE13=You Rascal You No. 2
TTITLE14=Stop And Listen Blues
TTITLE15=Down In Spirit Blues
TTITLE16=Worried Devil Blues
TTITLE17=SHe Don't Know My Mind - Part 2
TTITLE18=Stormy Sea Blues
TTITLE19=Blue And Evil Blues
TTITLE20=I'm Gonna Get High
TTITLE21=I'll Try To Forget
TTITLE22=She Loves Just Right
TTITLE23=Maybe Some Day
EXTD=YEAR: 2004
EXTT0=
EXTT1=
EXTT2=
EXTT3=
EXTT4=
EXTT5=
EXTT6=
EXTT7=
EXTT8=
EXTT9=
EXTT10=
EXTT11=
EXTT12=
EXTT13=
EXTT14=
EXTT15=
EXTT16=
EXTT17=
EXTT18=
EXTT19=
EXTT20=
EXTT21=
EXTT22=
EXTT23=
PLAYORDER=
